<?xml version="1.0" encoding="utf-8"?>
<!-- Generator: Adobe Illustrator 16.0.0, SVG Export Plug-In . SVG Version: 6.00 Build 0)  -->
<!DOCTYPE svg PUBLIC "-//W3C//DTD SVG 1.1//EN" "http://www.w3.org/Graphics/SVG/1.1/DTD/svg11.dtd">
<svg version="1.1" xmlns="http://www.w3.org/2000/svg" xmlns:xlink="http://www.w3.org/1999/xlink" x="0px" y="0px" width="600px"
	 height="600px" viewBox="0 0 600 600" enable-background="new 0 0 600 600" xml:space="preserve">
<g id="marketing">
	<g id="Folha" display="none">
		<path display="inline" fill="#2D2D2D" d="M419.27,41.58c-0.609-4.38-4.649-7.43-9.02-6.83L76.92,80.72
			c-4.37,0.6-7.44,4.64-6.84,9.01l36.49,264.58c4.2,0.181,9.9,1.21,15.79,4.69L85.9,94.62l319.46-44.06l26.609,192.93
			c5.011-2.47,9.771-4.49,14.3-6.09L419.27,41.58z M487.16,533.9l-9.01-65.36c-2.561-0.25-5.11-0.62-7.641-1.09l-0.49-0.04
			l-0.92-0.23L466.9,478.03l-0.46,1.18c-0.4,1.04-0.9,2.16-1.5,3.33l6.409,46.479l-246.24,33.95h-0.01
			c-5.63,6.92-11.46,12.08-15.17,15.07c-1.07,0.87-2.22,1.76-3.43,2.64l273.83-37.76C484.7,542.32,487.77,538.28,487.16,533.9z
			 M168.97,584.46c-1.78-2.19-4.45-6.68-3.68-13.24l-13.41,1.851l-8.04-58.271l-0.02-0.21l-7.13-13.66v-0.01l-3.64-6.99
			c-3.51-6.739-6.78-12.97-9.8-18.71l14.73,106.84c0.6,4.37,4.65,7.431,9.01,6.83l23.1-3.189
			C169.69,585.31,169.32,584.9,168.97,584.46z"/>
		<g id="text" display="inline">
			<path fill="#2D2D2D" d="M416.311,187.625c0.605,4.098-2.225,7.91-6.323,8.516l-281.938,41.66
				c-4.097,0.605-7.91-2.225-8.516-6.323l0,0c-0.605-4.098,2.226-7.91,6.323-8.516l281.938-41.661
				C411.893,180.696,415.705,183.527,416.311,187.625L416.311,187.625z"/>
			<path fill="#2D2D2D" d="M143.2,336.9l79.39-11.73l-0.93,15.3l-76.27,11.271c-4.1,0.609-7.91-2.23-8.51-6.32
				c-0.06-0.37-0.08-0.75-0.08-1.11C136.8,340.65,139.47,337.45,143.2,336.9z"/>
			<path fill="#2D2D2D" d="M427.33,310.08l-63.04,9.31l0.94-15.3l59.909-8.85c4.091-0.6,7.91,2.23,8.511,6.319
				C434.26,305.66,431.43,309.47,427.33,310.08z"/>
			<path fill="#2D2D2D" d="M147.25,364.35l73.61-10.88l-0.93,15.311l-70.48,10.41c-4.1,0.609-7.91-2.221-8.52-6.32
				c-0.05-0.37-0.08-0.74-0.08-1.101C140.85,368.11,143.53,364.91,147.25,364.35z"/>
			<path fill="#2D2D2D" d="M431.38,337.53l-68.82,10.17l0.94-15.3l65.69-9.71c4.1-0.601,7.909,2.229,8.52,6.329
				C438.31,333.11,435.48,336.93,431.38,337.53z"/>
			<path fill="#2D2D2D" d="M315.47,240.61l-56.04,8.28h-0.05l-9.69-0.59c-0.46-0.02-0.92-0.04-1.38-0.04c-4.83,0-9.32,1.55-13,4.19
				c0,0.01-0.01,0.01-0.01,0.01h-0.01l-102.83,15.19c-4.1,0.61-7.91-2.22-8.52-6.32c-0.05-0.37-0.08-0.74-0.08-1.1
				c0-3.66,2.68-6.86,6.41-7.42l183.01-27.04c4.1-0.6,7.91,2.23,8.52,6.32C322.4,236.19,319.57,240,315.47,240.61z"/>
			<path fill="#2D2D2D" d="M421.217,217.403c0.604,4.098-2.227,7.911-6.324,8.516l-64.301,9.501
				c-4.098,0.605-7.91-2.226-8.517-6.323l0,0c-0.604-4.098,2.227-7.91,6.324-8.516l64.301-9.501
				C416.798,210.475,420.61,213.306,421.217,217.403L421.217,217.403z"/>
			<path fill="#2D2D2D" d="M226.13,267.97c-0.06,0.43-0.09,0.86-0.12,1.29l-0.86,14.01l-88.7,13.11c-4.1,0.6-7.91-2.23-8.51-6.33
				c-0.06-0.37-0.08-0.74-0.08-1.11c0-3.65,2.67-6.85,6.4-7.4L226.13,267.97z"/>
			<path fill="#2D2D2D" d="M424.42,243.73l-63.85,17.21c-3.761-3.89-8.73-6.26-14.141-6.71c0.88-2.53,3.11-4.5,5.96-4.92l64.301-9.5
				C419.93,239.33,422.98,240.99,424.42,243.73z"/>
			<path fill="#2D2D2D" d="M138.64,309.45l85.69-12.66l-0.94,15.3l-82.56,12.2c-4.1,0.6-7.91-2.23-8.52-6.33
				c-0.05-0.37-0.08-0.729-0.08-1.1C132.23,313.21,134.91,310,138.64,309.45z"/>
			<path fill="#2D2D2D" d="M422.77,282.63l-56.739,8.38l0.8-13.15c0.04-0.71,0.05-1.42,0.03-2.13l53.71-7.94
				c4.1-0.61,7.91,2.22,8.52,6.32C429.7,278.21,426.87,282.02,422.77,282.63z"/>
		</g>
		<text transform="matrix(0.9893 -0.1456 0.1456 0.9893 112.6318 206.165)" display="inline"><tspan x="0" y="0" fill="#2D2D2D" font-family="'EncodeSans-SemiBold'" font-size="117">C</tspan><tspan x="70.551" y="0" fill="#2D2D2D" font-family="'EncodeSans-SemiBold'" font-size="60">&amp;</tspan><tspan x="117.44" y="0" fill="#2D2D2D" font-family="'EncodeSans-SemiBold'" font-size="117">M.</tspan></text>
	</g>
	<g id="Megafone">
		<path fill="#2D2D2D" d="M348.799,149.382l-248.58,66.998c0,0-25.065,11.302-28.632,33.347
			c-5.315,21.688,13.354,41.873,13.354,41.873l202.746,158.666c66.092,82.643,90.963,18.478,90.963,18.478l30.558-150.445
			l30.555-150.441C439.762,167.858,441.893,99.073,348.799,149.382z"/>
		<path fill="#2D2D2D" d="M215.787,385.764c-0.372,6.062-5.585,10.676-11.647,10.307l-143.748-8.78
			c-6.063-0.372-10.675-5.585-10.306-11.646l12.535-205.22c0.37-6.062,5.584-10.676,11.645-10.305l143.748,8.779
			c6.063,0.37,10.677,5.584,10.305,11.646L215.787,385.764z"/>
		<path fill="#2D2D2D" d="M149.94,483.082c-1.21,5.95-7.014,9.796-12.967,8.588l-79.036-16.056
			c-5.951-1.206-9.796-7.012-8.588-12.962l24.225-119.27c1.208-5.951,7.013-9.797,12.964-8.587l79.038,16.052
			c5.952,1.209,9.795,7.016,8.589,12.966L149.94,483.082z"/>
		<path fill="#2D2D2D" d="M481.507,204.84c-7.753-3.537-16.009-6.252-24.696-8.017c-0.484-0.099-0.971-0.197-1.458-0.282
			c-0.041-0.009-0.08-0.017-0.112-0.009c-5.711-0.809-11.134,2.971-12.3,8.708l-3.84,18.898c-1.135,5.589,2.174,11.059,7.488,12.713
			l0.056,0.01c0.647,0.12,1.311,0.239,1.958,0.372c1.077,0.219,2.163,0.465,3.217,0.735c39.814,9.966,64.819,51.82,56.053,94.978
			c-8.318,40.962-44.204,68.976-82.506,66.273c-3.126-0.214-6.267-0.644-9.404-1.279c-0.605-0.123-1.225-0.265-1.827-0.4
			c-4.552,0.592-8.437,4.052-9.417,8.873l-3.887,19.142c-1.19,5.861,2.354,11.544,7.99,12.998c0,0,0,0,0.015,0.001
			c9.484,1.845,18.941,2.446,28.21,1.903c52.957-3.019,99.771-42.851,111.237-99.304C559.997,283.476,530.97,227.384,481.507,204.84
			z"/>
		<path fill="#2D2D2D" d="M458.723,262.061c-3.846-1.755-7.939-3.103-12.25-3.977c-0.241-0.049-0.481-0.099-0.726-0.141
			c-0.018-0.004-0.039-0.007-0.054-0.004c-2.833-0.4-5.524,1.474-6.103,4.321l-1.904,9.375c-0.563,2.771,1.076,5.486,3.715,6.306
			l0.025,0.006c0.323,0.058,0.651,0.118,0.973,0.184c0.537,0.108,1.074,0.231,1.598,0.365c19.749,4.945,32.156,25.708,27.808,47.12
			c-4.129,20.32-21.932,34.217-40.932,32.877c-1.55-0.106-3.11-0.318-4.666-0.635c-0.301-0.062-0.605-0.13-0.904-0.198
			c-2.258,0.293-4.188,2.01-4.674,4.401l-1.928,9.495c-0.589,2.908,1.168,5.728,3.964,6.448c0,0,0,0,0.008,0
			c4.705,0.915,9.396,1.213,13.994,0.946c26.271-1.499,49.496-21.258,55.184-49.265C497.662,301.07,483.263,273.245,458.723,262.061
			z"/>
	</g>
	<g id="Pincel" display="none">
		<path display="inline" fill="#2D2D2D" d="M146.354,486.998c-15.447-29.643-39.034-74.055-48.394-86.921
			c-9.55-13.147-5.562-22.577-1.766-27.45c0.63-0.816,1.243-1.491,1.801-2.049c0.741-0.27,1.629-0.551,2.618-0.767
			c6.021-1.382,16.252-1.011,24.132,13.2c7.706,13.92,37.99,54.065,58.329,80.592c-7.699-1.83-16.106-0.659-23.309,3.93
			S147.949,479.247,146.354,486.998z"/>
		<path display="inline" fill="#2D2D2D" d="M201.486,487.421c-8.712-3.401-18.868-2.741-27.353,2.664
			c-8.484,5.405-13.374,14.331-13.973,23.665c-1.141-2.238-4.001-7.826-7.919-15.408c1.242-8.38,5.981-16.202,13.698-21.118
			s16.809-5.907,24.929-3.491C196.084,480.487,199.94,485.441,201.486,487.421z"/>
		<path display="inline" fill="#2D2D2D" d="M221.628,508.334l0.067-0.043c21.944,35.226-44.874,80.464-41.412,64.029
			c2.49-11.818-4.214-23.792-8.186-29.598c-0.013-0.003-0.024-0.02-0.026-0.042c-0.959-1.096-1.848-2.285-2.653-3.55
			c-9-14.127-4.844-32.877,9.283-41.877s32.876-4.844,41.876,9.283C220.954,507.127,221.313,507.729,221.628,508.334z"/>
	</g>
</g>
<g id="financeiro" display="none">
	<g display="inline">
		<path fill="#2D2D2D" d="M296.67,196v122.53c-9.46-1.07-19.52-1.9-30-2.49V196c0-4.42,3.58-8,8-8h14
			C293.08,188,296.67,191.58,296.67,196z"/>
		<path fill="#2D2D2D" d="M456,196v140.98l-21.33-9.561L426,346.76V196c0-4.42,3.58-8,8-8h14C452.42,188,456,191.58,456,196z"/>
		<path fill="#2D2D2D" d="M348,216v112.68c-7.59-2.649-15.98-4.56-23.97-6.09c-1.96-0.38-3.971-0.74-6.03-1.09V216
			c0-4.42,3.58-8,8-8h14C344.42,208,348,211.58,348,216z"/>
		<path fill="#2D2D2D" d="M400.67,146v209.69c-0.5,0.22-1,0.449-1.49,0.689c-10.689,5.24-18.84,13.99-24.229,26.021
			c-0.181,0.399-0.351,0.8-0.521,1.199V355c0-4.54-1.37-8.45-3.76-11.84V146c0-4.42,3.58-8,8-8h14
			C397.08,138,400.67,141.58,400.67,146z"/>
		<path fill="#2D2D2D" d="M514.67,146v234c0,4.42-3.59,8-8,8h-5.06l0.92-2.06l-9.45-7.21c-2.69-2.051-5.49-4.03-8.41-5.931V146
			c0-4.42,3.58-8,8-8h14C511.08,138,514.67,141.58,514.67,146z"/>
	</g>
	<g id="coins" display="inline">
		<g>
			<rect x="45.678" y="438" fill="#2D2D2D" width="261" height="31"/>
			<ellipse fill="#2D2D2D" cx="176.178" cy="469" rx="130.5" ry="25"/>
			<ellipse fill="#3A3A3A" cx="176.178" cy="438" rx="130.5" ry="25"/>
		</g>
		<g>
			<rect x="69.928" y="397.5" fill="#2D2D2D" width="261" height="31"/>
			<ellipse fill="#2D2D2D" cx="200.428" cy="428.5" rx="130.5" ry="25"/>
			<ellipse fill="#3A3A3A" cx="200.428" cy="397.5" rx="130.5" ry="25"/>
		</g>
		<g>
			<rect x="98.428" y="354" fill="#2D2D2D" width="261" height="31"/>
			<ellipse fill="#2D2D2D" cx="228.928" cy="385" rx="130.5" ry="25"/>
			<ellipse fill="#3A3A3A" cx="228.928" cy="354" rx="130.5" ry="25"/>
		</g>
	</g>
	<g display="inline">
		<path fill="#3A3A3A" d="M329.583,227.433c1.202,0.582,1.689,2.062,1.088,3.305l0,0c-0.601,1.242-2.063,1.779-3.266,1.197
			l-47.911-23.175c-1.203-0.582-1.69-2.061-1.089-3.304l0,0c0.601-1.243,2.064-1.779,3.266-1.197L329.583,227.433z"/>
		<path fill="#3A3A3A" d="M444.019,200.667c1.466,1.108,1.981,2.9,1.149,4.002l0,0c-0.831,1.102-2.697,1.097-4.163-0.012
			l-58.48-44.163c-1.468-1.109-1.984-2.901-1.152-4.003l0,0c0.832-1.101,2.698-1.096,4.165,0.012L444.019,200.667z"/>
		<path fill="#3A3A3A" d="M330.929,232.573c-0.66,0.881-2.091,0.925-3.196,0.097l0,0c-1.105-0.828-1.466-2.213-0.806-3.095
			l54.977-73.406c0.661-0.881,2.091-0.925,3.196-0.097l0,0c1.105,0.828,1.467,2.212,0.806,3.094L330.929,232.573z"/>
		<path fill="#3A3A3A" d="M445.263,204.767c-1.023,0.979-2.628,0.967-3.583-0.031l0,0c-0.955-0.998-0.898-2.601,0.126-3.581
			l85.309-81.661c1.026-0.98,2.629-0.967,3.584,0.031l0,0c0.955,0.998,0.899,2.601-0.127,3.581L445.263,204.767z"/>
		<circle fill="#3A3A3A" cx="528.797" cy="121.75" r="9.917"/>
	</g>
	<g display="inline">
		<path fill="#2D2D2D" d="M436.904,492.395c-7.748,3.743-16.873,4.785-27.381,3.128l-8.93,19.927l-28.104-12.594l7.935-17.705
			c-9.002-4.734-16.996-10.156-23.979-16.274l10.959-24.453c4.203,3.665,9.174,7.322,14.912,10.974
			c5.735,3.651,11.012,6.556,15.828,8.714c7.357,3.297,12.967,4.714,16.829,4.252s6.599-2.492,8.212-6.092
			c0.877-1.958,1.182-3.774,0.918-5.452c-0.268-1.676-1.227-3.506-2.881-5.485c-1.656-1.981-4.23-4.39-7.725-7.228l-8.549-6.881
			c-9.424-7.337-15.518-15.012-18.285-23.02c-2.767-8.009-2.109-16.564,1.971-25.669c3.936-8.785,9.65-15.013,17.141-18.679
			s16.65-4.535,27.48-2.605l8.967-20.006l28.104,12.595l-7.862,17.545c7.902,3.922,15.072,8.344,21.513,13.263l-10.994,24.533
			c-3.202-2.642-7.001-5.298-11.397-7.968c-4.396-2.669-8.659-4.929-12.787-6.779c-8.999-4.032-15.725-5.902-20.176-5.609
			c-4.455,0.292-7.463,2.186-9.028,5.679c-0.808,1.801-1.118,3.488-0.935,5.063c0.184,1.576,0.975,3.249,2.375,5.021
			c1.398,1.771,3.563,3.854,6.494,6.247l8.584,6.802c10.362,8.076,17.021,16.16,19.973,24.252
			c2.953,8.093,2.376,16.717-1.727,25.872C450.469,482.443,444.649,488.653,436.904,492.395z"/>
	</g>
</g>
<g id="esports" display="none">
	<path id="base_menor" display="inline" fill="#2D2D2D" d="M450,424c0,4.418-3.582,8-8,8H158c-4.418,0-8-3.582-8-8v-84
		c0-4.418,3.582-8,8-8h284c4.418,0,8,3.582,8,8V424z"/>
	<path id="base_maior" display="inline" fill="#2D2D2D" d="M492,363H108c-4.42,0-8,3.58-8,8v84c0,4.42,3.58,8,8,8h384
		c4.42,0,8-3.58,8-8v-84C500,366.58,496.42,363,492,363z M127,457c-6.9,0-12.5-5.6-12.5-12.5S120.1,432,127,432s12.5,5.6,12.5,12.5
		S133.9,457,127,457z"/>
	<path id="botao" display="inline" fill="#2D2D2D" d="M489,370c0,4.418-3.582,8-8,8h-14c-4.418,0-8-3.582-8-8v-14
		c0-4.418,3.582-8,8-8h14c4.418,0,8,3.582,8,8V370z"/>
	<path id="cabo" display="inline" fill="#2D2D2D" d="M178.448,511.33c-9.978,20.334-26.902,34.965-46.524,42.447l-5.549,1.91
		c-1.413,0.02-2.846-0.283-4.211-0.952c-4.623-2.269-6.526-7.858-4.258-12.481c0.666-1.356,1.614-2.472,2.73-3.316
		c1.977-0.533,3.926-1.17,5.862-1.891c15.444-5.778,28.802-17.247,36.643-33.228c10.175-20.737,8.653-44.175-2.015-62.819
		l23.531,11.545C189.442,471.579,187.769,492.333,178.448,511.33z"/>
	<path id="cano" display="inline" fill="#2D2D2D" d="M328.58,240.19l-10.05,53.32c-1.34,0.09-2.7,0.14-4.07,0.14
		c-1.78,0-3.53-0.08-5.27-0.24c2.93,0.79,5.949,1.35,9.05,1.66l-2.29,12.13l-15.05,79.84c-0.43,2.29-4.29,3.47-8.64,2.66
		l-13.75-2.601c-4.35-0.81-7.52-3.33-7.09-5.619l15.01-79.641l12.66-67.21c0.43-2.28,4.3-3.47,8.641-2.65l13.76,2.59
		C325.84,235.39,329.01,237.9,328.58,240.19z"/>
	<path id="manete" display="inline" fill="#2D2D2D" d="M314.46,156.22c-41.7,0-75.5,33.8-75.5,75.5c0,31.79,19.65,58.99,47.47,70.12
		c8.66,3.47,18.12,5.38,28.03,5.38c0.5,0,0.99,0,1.49-0.02c41-0.79,74.01-34.28,74.01-75.48
		C389.96,190.02,356.15,156.22,314.46,156.22z M324,295.36c-1.94,0-3.87-0.1-5.76-0.29c-3.101-0.31-6.12-0.87-9.05-1.66
		c1.739,0.16,3.489,0.24,5.27,0.24c1.37,0,2.73-0.05,4.07-0.14c31.25-2.09,55.96-28.1,55.96-59.88c0-15.49-5.86-29.6-15.49-40.25
		c13.39,10.42,22,26.69,22,44.98C381,269.84,355.48,295.36,324,295.36z"/>
</g>
<g id="operacional" display="none">
	<g display="inline">
		<path fill="#2D2D2D" d="M299.109,163.487c-75.399,0-136.509,61.119-136.509,136.51c0,75.39,61.12,136.51,136.509,136.51
			c75.391,0,136.51-61.12,136.51-136.51C435.619,224.606,374.5,163.487,299.109,163.487z M299.109,376.507
			c-20.439,0-39.649-7.96-54.099-22.41c-14.46-14.449-22.41-33.659-22.41-54.1c0-42.19,34.32-76.51,76.509-76.51
			c42.19,0,76.51,34.319,76.51,76.51S341.3,376.507,299.109,376.507z"/>
		<g>
			<path fill="#2D2D2D" d="M470.617,326.995c0.001,4.426-3.581,8.004-8.001,8.004h-53.998c-4.418,0-7.998-3.582-7.998-8l-0.002-54
				c-0.003-4.419,3.58-8.002,8-8.001l54.002,0.001c4.418-0.002,7.997,3.582,7.997,8V326.995z"/>
			<path fill="#2D2D2D" d="M334.106,190.482c0.001,4.426-3.581,8.004-8.001,8.004h-53.998c-4.418,0-7.998-3.582-7.998-8l-0.002-54
				c-0.003-4.419,3.58-8.002,8-8.001l54.001,0.001c4.418-0.002,7.997,3.582,7.997,8V190.482z"/>
			<path fill="#2D2D2D" d="M241.434,199.16c3.131,3.129,3.128,8.191,0.002,11.317l-38.182,38.182
				c-3.124,3.124-8.188,3.123-11.313-0.001l-38.186-38.182c-3.127-3.123-3.126-8.19,0-11.314l38.186-38.186
				c3.123-3.125,8.188-3.121,11.313,0.003L241.434,199.16z"/>
			<path fill="#2D2D2D" d="M439.014,390.913c3.131,3.129,3.127,8.192,0.002,11.318l-38.182,38.182
				c-3.125,3.124-8.189,3.123-11.313-0.001l-38.186-38.183c-3.127-3.123-3.127-8.189,0-11.314l38.186-38.185
				c3.123-3.125,8.188-3.122,11.313,0.003L439.014,390.913z"/>
			<path fill="#2D2D2D" d="M439.014,199.159c3.131,3.129,3.127,8.192,0.002,11.318l-38.182,38.182
				c-3.125,3.124-8.189,3.123-11.313-0.001l-38.186-38.183c-3.127-3.123-3.127-8.189,0-11.314l38.186-38.185
				c3.123-3.125,8.188-3.122,11.313,0.003L439.014,199.159z"/>
			<path fill="#2D2D2D" d="M241.434,390.913c3.131,3.129,3.127,8.192,0.002,11.318l-38.182,38.182
				c-3.125,3.124-8.189,3.123-11.313-0.001l-38.186-38.183c-3.127-3.123-3.127-8.189,0-11.314l38.186-38.185
				c3.123-3.125,8.188-3.122,11.313,0.003L241.434,390.913z"/>
			<path fill="#2D2D2D" d="M197.596,326.994c0.001,4.426-3.581,8.004-8.001,8.004h-53.998c-4.418,0-7.998-3.582-7.998-8l-0.002-54
				c-0.003-4.419,3.58-8.002,8-8.001l54.002,0.001c4.418-0.002,7.997,3.582,7.997,8V326.994z"/>
			<path fill="#2D2D2D" d="M334.106,463.507c0.001,4.425-3.581,8.004-8.001,8.003h-53.998c-4.418,0-7.998-3.581-7.998-7.999
				l-0.002-54c-0.003-4.42,3.58-8.002,8-8.001l54.001,0.001c4.418-0.002,7.997,3.582,7.997,8V463.507z"/>
		</g>
	</g>
	<path display="inline" fill="#2D2D2D" d="M299.106,90.666c105.66,0,193.03,78.28,207.29,180h46.37
		c-14.54-127.2-122.56-226-253.66-226c-131.1,0-239.12,98.8-253.66,226h46.37C106.077,168.945,193.447,90.666,299.106,90.666z
		 M299.106,509.335c-105.65,0-193.03-78.279-207.29-180h-46.37c14.55,127.2,122.56,226,253.66,226c131.101,0,239.11-98.8,253.66-226
		h-46.37C492.137,431.056,404.757,509.335,299.106,509.335z"/>
	<polygon display="inline" fill="#2D2D2D" points="66.482,318.842 29.523,240.157 116.145,247.491 	"/>
	<polygon display="inline" fill="#2D2D2D" points="520.815,280.5 483.856,359.185 570.478,351.851 	"/>
</g>
<g id="Layer_8" display="none">
	<circle display="inline" fill="#2D2D2D" cx="300" cy="174.993" r="94"/>
	<path display="inline" fill="#2D2D2D" d="M203.05,292l70.5,70.5c-10.39,2.2-18.22,11.45-18.22,22.49v176.67H129.67
		c-4.42,0-8-3.58-8-8v-256c0-4.42,3.58-8,8-8h67.73C199.44,289.66,201.49,290.44,203.05,292z"/>
	<path display="inline" fill="#2D2D2D" d="M478.33,297.66v256c0,4.42-3.58,8-8,8H350.66V384.99c0-12.48-10-22.681-22.41-22.98
		L398.26,292c1.561-1.56,3.61-2.34,5.66-2.34h66.41C474.75,289.66,478.33,293.24,478.33,297.66z"/>
	<path display="inline" fill="#2D2D2D" d="M340.069,318.199c3.125,3.123,3.125,8.188,0,11.313l-34.412,34.413
		c-3.125,3.124-8.189,3.124-11.314,0.001l-34.412-34.414c-3.125-3.123-3.125-8.189,0-11.313l34.412-34.413
		c3.125-3.125,8.189-3.124,11.314,0L340.069,318.199z"/>
	<path display="inline" fill="#2D2D2D" d="M333.66,408.25v153.41h-65.33V407.67c0.27-0.81,0.73-1.56,1.37-2.2l27.19-27.2
		c0.58-0.579,1.25-1.01,1.97-1.279h4.11c0.721,0.27,1.391,0.7,1.971,1.279l27.199,27.2C332.93,406.26,333.44,407.23,333.66,408.25z"
		/>
</g>
</svg>
